<?xml version="1.0" encoding="utf-8"?>
<!-- Generator: Adobe Illustrator 27.0.0, SVG Export Plug-In . SVG Version: 6.00 Build 0)  -->
<svg version="1.1" id="Слой_1" xmlns="http://www.w3.org/2000/svg" xmlns:xlink="http://www.w3.org/1999/xlink" x="0px" y="0px"
	 viewBox="0 0 148.8 60.7" style="enable-background:new 0 0 148.8 60.7;" xml:space="preserve">
<style type="text/css">
	.st0{fill:#6E6E6D;}
	.st1{fill:#C45995;}
</style>
<g>
	<path class="st0" d="M12.8,53.5h0.1l1,2.9h-0.4l-0.7-2.2l-1.1,2.2h-0.1l-1.1-2.2l-0.7,2.2H9.4l1-2.9h0.1l1.2,2.3L12.8,53.5z"/>
	<path class="st0" d="M16.9,55.4l0.3,0.2c-0.1,0.2-0.2,0.4-0.4,0.5c-0.1,0.1-0.3,0.2-0.5,0.3s-0.4,0.1-0.6,0.1
		c-0.5,0-0.9-0.2-1.1-0.5s-0.4-0.7-0.4-1.1s0.1-0.7,0.3-1c0.3-0.4,0.7-0.6,1.2-0.6c0.5,0,0.9,0.2,1.2,0.6c0.2,0.3,0.3,0.6,0.3,1
		h-2.6c0,0.3,0.1,0.6,0.3,0.8c0.2,0.2,0.5,0.3,0.8,0.3c0.1,0,0.3,0,0.4-0.1c0.1-0.1,0.3-0.1,0.4-0.2C16.7,55.8,16.8,55.6,16.9,55.4z
		 M16.9,54.6c-0.1-0.2-0.1-0.4-0.2-0.5s-0.2-0.2-0.4-0.3c-0.2-0.1-0.3-0.1-0.5-0.1c-0.3,0-0.5,0.1-0.7,0.3c-0.2,0.1-0.3,0.3-0.3,0.6
		H16.9z"/>
	<path class="st0" d="M19.5,53.5h0.4v1.3l1.4-1.3h0.5l-1.4,1.3l1.5,1.6h-0.5L20.1,55l-0.2,0.2v1.2h-0.4v-1.2L19.3,55L18,56.4h-0.5
		l1.5-1.6l-1.4-1.3h0.5l1.4,1.3V53.5z"/>
	<path class="st0" d="M22.3,56.1l1.1-2.6h0.2l1.1,2.6h0.4v0.7h-0.4v-0.4h-2.4v0.4h-0.4v-0.7H22.3z M23.5,54l-0.9,2h1.7L23.5,54z"/>
	<path class="st0" d="M25.3,53.5h0.4l1,2.3l1-2.3h0.4l-1.7,4H26l0.6-1.3L25.3,53.5z"/>
	<path class="st0" d="M30.7,55H29v1.4h-0.4v-2.9H29v1.2h1.7v-1.2h0.4v2.9h-0.4V55z"/>
	<path class="st0" d="M34.8,53.5v2.9h-0.4v-0.5c-0.2,0.2-0.3,0.3-0.5,0.4s-0.4,0.1-0.6,0.1c-0.4,0-0.8-0.2-1.1-0.5
		c-0.3-0.3-0.4-0.7-0.4-1.1s0.1-0.8,0.4-1.1c0.3-0.3,0.7-0.4,1.1-0.4c0.2,0,0.5,0.1,0.7,0.2s0.4,0.3,0.5,0.5v-0.5H34.8z M33.3,53.8
		c-0.2,0-0.4,0.1-0.6,0.2c-0.2,0.1-0.3,0.2-0.4,0.4c-0.1,0.2-0.2,0.4-0.2,0.6s0.1,0.4,0.2,0.6c0.1,0.2,0.2,0.3,0.4,0.4
		s0.4,0.2,0.6,0.2c0.2,0,0.4-0.1,0.6-0.2c0.2-0.1,0.3-0.2,0.4-0.4c0.1-0.2,0.1-0.4,0.1-0.6c0-0.3-0.1-0.6-0.3-0.9
		C33.9,53.9,33.6,53.8,33.3,53.8z"/>
	<path class="st0" d="M35.6,53.5H36V54c0.1-0.2,0.3-0.4,0.5-0.5s0.4-0.2,0.6-0.2c0.4,0,0.8,0.2,1.1,0.4c0.3,0.3,0.4,0.7,0.4,1.1
		s-0.1,0.8-0.4,1.1c-0.3,0.3-0.6,0.5-1.1,0.5c-0.2,0-0.4,0-0.6-0.1s-0.4-0.2-0.5-0.4v1.6h-0.4V53.5z M37.2,53.8
		c-0.3,0-0.6,0.1-0.8,0.3c-0.2,0.2-0.3,0.5-0.3,0.9c0,0.2,0,0.4,0.1,0.6s0.2,0.3,0.4,0.4s0.4,0.2,0.6,0.2c0.2,0,0.4-0.1,0.6-0.2
		c0.2-0.1,0.3-0.3,0.4-0.4c0.1-0.2,0.2-0.4,0.2-0.6s-0.1-0.4-0.2-0.6c-0.1-0.2-0.2-0.3-0.4-0.4C37.6,53.8,37.4,53.8,37.2,53.8z"/>
	<path class="st0" d="M40.8,53.4c0.5,0,0.8,0.2,1.1,0.5s0.4,0.7,0.4,1.1s-0.1,0.8-0.4,1.1c-0.3,0.3-0.7,0.5-1.1,0.5
		c-0.4,0-0.8-0.2-1.1-0.5s-0.4-0.7-0.4-1.1s0.1-0.8,0.4-1.1C40,53.6,40.3,53.4,40.8,53.4z M40.8,53.8c-0.3,0-0.6,0.1-0.8,0.3
		c-0.2,0.2-0.3,0.5-0.3,0.8c0,0.2,0.1,0.4,0.2,0.6c0.1,0.2,0.2,0.3,0.4,0.4s0.4,0.1,0.6,0.1c0.2,0,0.4,0,0.6-0.1s0.3-0.2,0.4-0.4
		c0.1-0.2,0.2-0.4,0.2-0.6c0-0.3-0.1-0.6-0.3-0.8C41.4,53.9,41.1,53.8,40.8,53.8z"/>
	<path class="st0" d="M43,56.1l1.1-2.6h0.2l1.1,2.6h0.4v0.7h-0.4v-0.4H43v0.4h-0.4v-0.7H43z M44.3,54l-0.9,2h1.7L44.3,54z"/>
	<path class="st0" d="M48.4,55h-1.7v1.4h-0.4v-2.9h0.4v1.2h1.7v-1.2h0.4v2.9h-0.4V55z"/>
	<path class="st0" d="M50,54.6h0.4c0.3,0,0.5,0,0.7,0.1c0.2,0,0.3,0.1,0.4,0.3c0.1,0.2,0.2,0.3,0.2,0.5s-0.1,0.4-0.3,0.6
		s-0.4,0.3-0.8,0.3h-1v-2.9H50L50,54.6L50,54.6z M50,55v1.1h0.4c0.5,0,0.8-0.2,0.8-0.5c0-0.1,0-0.2-0.1-0.3
		c-0.1-0.1-0.1-0.2-0.2-0.2S50.6,55,50.3,55H50z M52.2,53.5h0.4v2.9h-0.4V53.5z"/>
	<path class="st0" d="M53.7,53.5v2.2l2.2-2.2l0,0v2.9h-0.4v-2.1l-2.1,2.1l0,0v-2.9H53.7z M53.7,52.3h0.4c0.1,0.1,0.1,0.2,0.2,0.2
		s0.2,0.1,0.4,0.1c0.1,0,0.3,0,0.3-0.1c0.1,0,0.2-0.1,0.3-0.2h0.3c0,0.2-0.1,0.3-0.3,0.4s-0.4,0.2-0.6,0.2c-0.3,0-0.5-0.1-0.6-0.2
		S53.7,52.5,53.7,52.3z"/>
	<path class="st0" d="M58.3,53.5h0.4v1.2l1.4-1.2h0.5l-1.5,1.3l1.6,1.6h-0.5L58.9,55l-0.1,0.1v1.2h-0.4L58.3,53.5L58.3,53.5z"/>
	<path class="st0" d="M62.4,53.4c0.5,0,0.8,0.2,1.1,0.5s0.4,0.7,0.4,1.1s-0.1,0.8-0.4,1.1c-0.3,0.3-0.7,0.5-1.1,0.5
		c-0.4,0-0.8-0.2-1.1-0.5s-0.4-0.7-0.4-1.1s0.1-0.8,0.4-1.1C61.6,53.6,62,53.4,62.4,53.4z M62.4,53.8c-0.3,0-0.6,0.1-0.8,0.3
		c-0.2,0.2-0.3,0.5-0.3,0.8c0,0.2,0.1,0.4,0.2,0.6c0.1,0.2,0.2,0.3,0.4,0.4s0.4,0.1,0.6,0.1s0.4,0,0.6-0.1c0.2-0.1,0.3-0.2,0.4-0.4
		c0.1-0.2,0.2-0.4,0.2-0.6c0-0.3-0.1-0.6-0.3-0.8C63,53.9,62.7,53.8,62.4,53.8z"/>
	<path class="st0" d="M66.7,55H65v1.4h-0.4v-2.9H65v1.2h1.7v-1.2h0.4v2.9h-0.4V55z"/>
	<path class="st0" d="M68,53.5h0.4v1.2l1.4-1.2h0.5l-1.5,1.3l1.6,1.6h-0.5L68.6,55l-0.1,0.1v1.2H68V53.5z"/>
	<path class="st0" d="M70.4,53.5h0.4l1,2.3l1-2.3h0.4l-1.7,4h-0.4l0.6-1.3L70.4,53.5z"/>
	<path class="st0" d="M73.7,53.5h0.4V54c0.1-0.2,0.3-0.4,0.5-0.5s0.4-0.2,0.6-0.2c0.4,0,0.8,0.2,1.1,0.4c0.3,0.3,0.4,0.7,0.4,1.1
		s-0.1,0.8-0.4,1.1c-0.3,0.3-0.6,0.5-1.1,0.5c-0.2,0-0.4,0-0.6-0.1s-0.4-0.2-0.5-0.4v1.6h-0.4V53.5z M75.2,53.8
		c-0.3,0-0.6,0.1-0.8,0.3c-0.2,0.2-0.3,0.5-0.3,0.9c0,0.2,0,0.4,0.1,0.6s0.2,0.3,0.4,0.4s0.4,0.2,0.6,0.2c0.2,0,0.4-0.1,0.6-0.2
		c0.2-0.1,0.3-0.3,0.4-0.4c0.1-0.2,0.2-0.4,0.2-0.6s-0.1-0.4-0.2-0.6c-0.1-0.2-0.2-0.3-0.4-0.4C75.6,53.8,75.4,53.8,75.2,53.8z"/>
	<path class="st0" d="M80.3,54.1L80,54.3c-0.3-0.3-0.6-0.5-1.1-0.5c-0.4,0-0.7,0.1-0.9,0.3c-0.2,0.2-0.4,0.5-0.4,0.8
		c0,0.2,0.1,0.4,0.2,0.6c0.1,0.2,0.3,0.3,0.4,0.4c0.2,0.1,0.4,0.2,0.6,0.2c0.4,0,0.8-0.2,1.1-0.5l0.3,0.2c-0.1,0.2-0.3,0.4-0.6,0.5
		c-0.2,0.1-0.5,0.2-0.8,0.2c-0.5,0-0.8-0.1-1.2-0.4s-0.5-0.7-0.5-1.1c0-0.3,0.1-0.5,0.2-0.8c0.1-0.2,0.3-0.4,0.6-0.6
		c0.2-0.1,0.5-0.2,0.8-0.2c0.2,0,0.4,0,0.6,0.1c0.2,0.1,0.3,0.1,0.5,0.2S80.2,53.9,80.3,54.1z"/>
	<path class="st0" d="M82.6,56.4v-4.1H83v1.6c0.2-0.2,0.3-0.3,0.5-0.4s0.4-0.1,0.6-0.1c0.4,0,0.8,0.2,1.1,0.5s0.4,0.7,0.4,1.1
		s-0.1,0.8-0.4,1.1c-0.3,0.3-0.7,0.4-1.1,0.4c-0.2,0-0.5-0.1-0.6-0.2S83.1,56,83,55.8v0.5h-0.4V56.4z M84.1,56.1
		c0.2,0,0.4-0.1,0.6-0.2c0.2-0.1,0.3-0.2,0.4-0.4c0.1-0.2,0.2-0.4,0.2-0.6s-0.1-0.4-0.2-0.6c-0.1-0.2-0.2-0.3-0.4-0.4
		s-0.4-0.2-0.6-0.2c-0.2,0-0.4,0.1-0.6,0.2c-0.2,0.1-0.3,0.2-0.4,0.4C83,54.5,83,54.7,83,54.9c0,0.3,0.1,0.6,0.3,0.9
		C83.5,56,83.8,56.1,84.1,56.1z"/>
	<path class="st0" d="M88.8,55.4l0.3,0.2c-0.1,0.2-0.2,0.4-0.4,0.5c-0.1,0.1-0.3,0.2-0.5,0.3c-0.2,0.1-0.4,0.1-0.6,0.1
		c-0.5,0-0.9-0.2-1.1-0.5c-0.3-0.3-0.4-0.7-0.4-1.1s0.1-0.7,0.3-1c0.3-0.4,0.7-0.6,1.2-0.6s0.9,0.2,1.2,0.6c0.2,0.3,0.3,0.6,0.3,1
		h-2.6c0,0.3,0.1,0.6,0.3,0.8c0.2,0.2,0.5,0.3,0.8,0.3c0.1,0,0.3,0,0.4-0.1c0.1-0.1,0.3-0.1,0.4-0.2C88.6,55.8,88.7,55.6,88.8,55.4z
		 M88.8,54.6c-0.1-0.2-0.1-0.4-0.2-0.5c-0.1-0.1-0.2-0.2-0.4-0.3c-0.2-0.1-0.3-0.1-0.5-0.1c-0.3,0-0.5,0.1-0.7,0.3
		c-0.2,0.1-0.3,0.3-0.3,0.6H88.8z"/>
	<path class="st0" d="M92.8,53.5v2.9h-0.4v-0.5c-0.2,0.2-0.3,0.3-0.5,0.4s-0.4,0.1-0.6,0.1c-0.4,0-0.8-0.2-1.1-0.5s-0.4-0.7-0.4-1.1
		s0.1-0.8,0.4-1.1c0.3-0.3,0.7-0.4,1.1-0.4c0.2,0,0.5,0.1,0.7,0.2s0.4,0.3,0.5,0.5v-0.5H92.8z M91.3,53.8c-0.2,0-0.4,0.1-0.6,0.2
		c-0.2,0.1-0.3,0.2-0.4,0.4c-0.1,0.2-0.2,0.4-0.2,0.6s0.1,0.4,0.2,0.6c0.1,0.2,0.2,0.3,0.4,0.4s0.4,0.2,0.6,0.2
		c0.2,0,0.4-0.1,0.6-0.2c0.2-0.1,0.3-0.2,0.4-0.4c0.1-0.2,0.1-0.4,0.1-0.6c0-0.3-0.1-0.6-0.3-0.9C91.9,53.9,91.6,53.8,91.3,53.8z"/>
	<path class="st0" d="M93.6,53.5H94v1.4c0,0.3,0,0.6,0.1,0.7c0.1,0.2,0.2,0.3,0.3,0.4c0.2,0.1,0.3,0.2,0.5,0.2s0.4-0.1,0.5-0.2
		s0.2-0.2,0.3-0.4c0-0.1,0.1-0.4,0.1-0.7v-1.4h0.4v1.4c0,0.4,0,0.7-0.1,0.9c-0.1,0.2-0.2,0.4-0.4,0.5s-0.4,0.2-0.7,0.2
		s-0.5-0.1-0.7-0.2S94,56,93.9,55.8c-0.1-0.2-0.1-0.5-0.1-0.9v-1.4H93.6z"/>
	<path class="st0" d="M97.4,52.4h0.4v1.1h0.6v0.3h-0.6v2.6h-0.4v-2.6h-0.5v-0.3h0.5V52.4z"/>
	<path class="st0" d="M98.6,53.5H99l1,2.3l1-2.3h0.4l-1.7,4h-0.4l0.6-1.3L98.6,53.5z"/>
	<path class="st0" d="M106.6,53.5h0.1l1,2.9h-0.4l-0.7-2.2l-1.1,2.2h-0.1l-1.1-2.2l-0.7,2.2h-0.4l1-2.9h0.1l1.2,2.3L106.6,53.5z"/>
	<path class="st0" d="M111.1,53.5v2.9h-0.4v-0.5c-0.2,0.2-0.3,0.3-0.5,0.4s-0.4,0.1-0.6,0.1c-0.4,0-0.8-0.2-1.1-0.5
		s-0.4-0.7-0.4-1.1s0.1-0.8,0.4-1.1c0.3-0.3,0.7-0.4,1.1-0.4c0.2,0,0.5,0.1,0.7,0.2s0.4,0.3,0.5,0.5v-0.5H111.1z M109.6,53.8
		c-0.2,0-0.4,0.1-0.6,0.2c-0.2,0.1-0.3,0.2-0.4,0.4c-0.1,0.2-0.2,0.4-0.2,0.6s0.1,0.4,0.2,0.6c0.1,0.2,0.2,0.3,0.4,0.4
		s0.4,0.2,0.6,0.2c0.2,0,0.4-0.1,0.6-0.2c0.2-0.1,0.3-0.2,0.4-0.4c0.1-0.2,0.1-0.4,0.1-0.6c0-0.3-0.1-0.6-0.3-0.9
		C110.2,53.9,110,53.8,109.6,53.8z"/>
	<path class="st0" d="M114.8,54.1l-0.3,0.2c-0.3-0.3-0.6-0.5-1.1-0.5c-0.4,0-0.7,0.1-0.9,0.3c-0.2,0.2-0.4,0.5-0.4,0.8
		c0,0.2,0.1,0.4,0.2,0.6c0.1,0.2,0.3,0.3,0.4,0.4c0.2,0.1,0.4,0.2,0.6,0.2c0.4,0,0.8-0.2,1.1-0.5l0.3,0.2c-0.1,0.2-0.3,0.4-0.6,0.5
		c-0.2,0.1-0.5,0.2-0.8,0.2c-0.5,0-0.8-0.1-1.2-0.4s-0.5-0.7-0.5-1.1c0-0.3,0.1-0.5,0.2-0.8c0.1-0.2,0.3-0.4,0.6-0.6
		c0.2-0.1,0.5-0.2,0.8-0.2c0.2,0,0.4,0,0.6,0.1c0.2,0.1,0.3,0.1,0.5,0.2S114.8,53.9,114.8,54.1z"/>
	<path class="st0" d="M115.2,53.5h1.9v0.3h-0.8v2.6H116v-2.6h-0.8V53.5z"/>
	<path class="st0" d="M120.1,55.4l0.3,0.2c-0.1,0.2-0.2,0.4-0.4,0.5c-0.1,0.1-0.3,0.2-0.5,0.3s-0.4,0.1-0.6,0.1
		c-0.5,0-0.9-0.2-1.1-0.5c-0.3-0.3-0.4-0.7-0.4-1.1s0.1-0.7,0.3-1c0.3-0.4,0.7-0.6,1.2-0.6s0.9,0.2,1.2,0.6c0.2,0.3,0.3,0.6,0.3,1
		h-2.6c0,0.3,0.1,0.6,0.3,0.8c0.2,0.2,0.5,0.3,0.8,0.3c0.1,0,0.3,0,0.4-0.1c0.1-0.1,0.3-0.1,0.4-0.2C119.9,55.8,120,55.6,120.1,55.4
		z M120.1,54.6c-0.1-0.2-0.1-0.4-0.2-0.5c-0.1-0.1-0.2-0.2-0.4-0.3c-0.2-0.1-0.3-0.1-0.5-0.1c-0.3,0-0.5,0.1-0.7,0.3
		c-0.2,0.1-0.3,0.3-0.3,0.6H120.1z"/>
	<path class="st0" d="M121.3,53.5h0.4V54c0.1-0.2,0.3-0.4,0.5-0.5s0.4-0.2,0.6-0.2c0.4,0,0.8,0.2,1.1,0.4c0.3,0.3,0.4,0.7,0.4,1.1
		s-0.1,0.8-0.4,1.1c-0.3,0.3-0.6,0.5-1.1,0.5c-0.2,0-0.4,0-0.6-0.1s-0.4-0.2-0.5-0.4v1.6h-0.4L121.3,53.5L121.3,53.5z M122.8,53.8
		c-0.3,0-0.6,0.1-0.8,0.3c-0.2,0.2-0.3,0.5-0.3,0.9c0,0.2,0,0.4,0.1,0.6s0.2,0.3,0.4,0.4c0.2,0.1,0.4,0.2,0.6,0.2s0.4-0.1,0.6-0.2
		s0.3-0.3,0.4-0.4c0.1-0.2,0.2-0.4,0.2-0.6s-0.1-0.4-0.2-0.6s-0.2-0.3-0.4-0.4C123.2,53.8,123,53.8,122.8,53.8z"/>
	<path class="st0" d="M126.4,53.4c0.5,0,0.8,0.2,1.1,0.5c0.3,0.3,0.4,0.7,0.4,1.1s-0.1,0.8-0.4,1.1c-0.3,0.3-0.7,0.5-1.1,0.5
		s-0.8-0.2-1.1-0.5c-0.3-0.3-0.4-0.7-0.4-1.1s0.1-0.8,0.4-1.1C125.6,53.6,126,53.4,126.4,53.4z M126.4,53.8c-0.3,0-0.6,0.1-0.8,0.3
		c-0.2,0.2-0.3,0.5-0.3,0.8c0,0.2,0.1,0.4,0.2,0.6s0.2,0.3,0.4,0.4c0.2,0.1,0.4,0.1,0.6,0.1s0.4,0,0.6-0.1s0.3-0.2,0.4-0.4
		c0.1-0.2,0.2-0.4,0.2-0.6c0-0.3-0.1-0.6-0.3-0.8C127,53.9,126.7,53.8,126.4,53.8z"/>
	<path class="st0" d="M129.5,56.4h-0.9v-2.9h0.8c0.3,0,0.6,0.1,0.7,0.2s0.2,0.3,0.2,0.5c0,0.3-0.1,0.5-0.4,0.6
		c0.4,0.1,0.6,0.4,0.6,0.8C130.6,56.1,130.2,56.4,129.5,56.4z M129,53.8v0.9h0.2c0.2,0,0.4,0,0.4,0c0.1,0,0.1-0.1,0.2-0.1
		c0.1-0.1,0.1-0.2,0.1-0.3c0-0.1,0-0.2-0.1-0.3c-0.1-0.1-0.1-0.1-0.2-0.1s-0.2,0-0.4,0H129V53.8z M129,55.1v1h0.4c0.2,0,0.3,0,0.4,0
		s0.2-0.1,0.2-0.2c0.1-0.1,0.1-0.2,0.1-0.3c0-0.2-0.1-0.3-0.2-0.4s-0.2-0.1-0.4-0.1H129z"/>
</g>
<g>
	<polygon class="st1" points="33.6,17.6 31.8,7.9 27.3,17.6 17.1,17.6 24.5,23.6 17.2,39.3 29.1,27.3 35,31.8 34.7,23.6 43.9,17.6 	
		"/>
	<path class="st1" d="M9.2,35.2c0.5-0.1,0.9-0.1,1.4,0.1c-2.2-9.2,1.3-19.4,8.9-25.5c2.1-1.7,4.7-3.2,7.3-4c0.5-0.2,1.7-0.4,2.2-0.6
		L30.5,5c1.6-0.3,3.4-0.3,5-0.2c0.3,0,0.9,0.1,1.1,0.1c1.8,0.2,3.5,0.6,5.3,1.2C42.4,6.3,43.5,6.8,44,7c0.5,0.2,1.6,0.8,2,1.1
		c0.6,0.4,1.3,0.8,1.9,1.3c3.4,2.4,5.6,5.7,6.7,9.3c0.5,0.1,0.9,0.3,1.2,0.6C53.4,7.6,39.2,0.2,26.6,3.2c-2.8,0.6-5.5,1.7-7.9,3.2
		C8.8,12.6,3.4,23.7,5.1,35.5c0.1,0,5.3,0,5.4,0"/>
	<g>
		<path class="st1" d="M12.9,21.7c0,0.9-0.1,1-1,1c0.9,0,1,0.1,1,1c0-0.9,0.1-1,1-1C13,22.7,12.9,22.6,12.9,21.7z"/>
		<path class="st1" d="M24.6,8.2c0,1.1-0.2,1.3-1.3,1.3c1.1,0,1.3,0.2,1.3,1.3c0-1.1,0.2-1.3,1.3-1.3C24.8,9.5,24.6,9.3,24.6,8.2z"
			/>
		<path class="st1" d="M14.2,27.7c0,0.6-0.1,0.7-0.7,0.7c0.6,0,0.7,0.1,0.7,0.7c0-0.6,0.1-0.7,0.7-0.7
			C14.3,28.3,14.2,28.2,14.2,27.7z"/>
		<path class="st1" d="M37.1,5.8c0,0.6-0.1,0.7-0.7,0.7c0.6,0,0.7,0.1,0.7,0.7c0-0.6,0.1-0.7,0.7-0.7C37.2,6.4,37.1,6.3,37.1,5.8z"
			/>
	</g>
	<path class="st1" d="M21.2,46.2l-2.6-3.1l5.9-7.7h-5.2l-3.6,5v-5h-3.8c0,0,0.1,0.1,0,0.1c-1.4-0.1-1.4,0.1-1.4,3v12.2h5.2v-4.6
		l4,4.6h10v-4.6h-8.5V46.2z"/>
	<path class="st1" d="M26.4,50.7V39.9h-6.7l3.3-4.6h13.8c1.3,0.1,2.4,0.4,3.2,1c0.8,0.5,1.4,1.3,1.8,2.2c0.3,1.1,0.5,2,0.4,2.6
		s-0.2,1.1-0.4,1.6s-0.7,1.1-1.5,1.7s-1.9,1.1-3.2,1.3h-5v5.1h-5.7V50.7z M32.2,39.2V42h4c0.2,0,0.4-0.1,0.7-0.2
		c0.3-0.2,0.4-0.5,0.4-1.2c0-0.6-0.2-1-0.5-1.2s-0.5-0.3-0.7-0.3h-3.9V39.2z"/>
	<path class="st1" d="M41.3,40l-5.9-4.6h19.4l5.4,15.4h-6.1l-1-2.8h-4.8l-1,2.8h-5.8L45.2,40H41.3z M50.8,38.8l-2.3,6.1h4.4
		L50.8,38.8z"/>
	<path class="st1" d="M64.6,42.9c0.1,0.9,0.3,1.5,0.6,1.9s0.7,0.8,1.2,1s1.1,0.4,2.1,0.5c0.9-0.1,1.6-0.2,2-0.4
		c0.4-0.2,0.9-0.5,1.4-0.9l3.2,3.4c-0.9,0.8-1.8,1.4-2.7,1.7s-2.2,0.5-3.9,0.6c-1.7-0.1-2.9-0.3-3.8-0.7c-0.9-0.4-1.7-0.9-2.5-1.5
		s-1.5-1.4-2-2.4s-0.7-2-0.7-3.3c0-1.2,0.2-2.3,0.7-3.3c0.5-0.9,1.1-1.7,2-2.4s1.7-1.1,2.5-1.5c0.9-0.4,2.1-0.6,3.8-0.7
		c1.7,0.1,3,0.3,3.9,0.6c0.9,0.3,1.8,0.9,2.7,1.7l-3.2,3.4c-0.5-0.4-1-0.7-1.4-0.9c-0.4-0.2-1.1-0.3-2-0.4c-0.9,0.1-1.6,0.3-2.1,0.5
		s-0.8,0.6-1.2,1S64.7,42,64.6,42.9z"/>
	<path class="st1" d="M93.8,43.1c0,1.7-0.4,3.1-1.1,4.3c-0.7,1.2-1.8,2.1-3.2,2.7s-3,0.9-5,0.9c-1.9,0-3.6-0.3-5-0.9
		s-2.4-1.5-3.1-2.7c-0.7-1.2-1.1-2.6-1.1-4.3c0-1.3,0.2-2.4,0.6-3.4c0.4-1,1-1.8,1.8-2.5s1.7-1.2,2.9-1.5c1.1-0.3,2.4-0.5,3.9-0.5
		c1.9,0,3.6,0.3,5,0.9s2.5,1.5,3.2,2.7C93.5,40,93.8,41.5,93.8,43.1z M81.1,43.2c0,1,0.2,1.8,0.7,2.6c0.5,0.7,1.4,1.1,2.7,1.1
		c1.1,0,1.8-0.2,2.4-0.6c0.5-0.4,0.8-0.8,1-1.3c0.1-0.5,0.2-1.1,0.3-1.8c0-1-0.3-1.8-0.7-2.6c-0.5-0.7-1.4-1.1-2.9-1.1
		C82.3,39.5,81.1,40.7,81.1,43.2z"/>
	<path class="st1" d="M107.6,35.4V40h-5.1v10.8h-5.2V40h-5.1l-7.6-4.7L107.6,35.4z"/>
	<path class="st1" d="M112.3,35.4v5.1h5c1.3,0.2,2.4,0.6,3.2,1.3s1.3,1.2,1.5,1.7c0.2,0.5,0.3,1,0.4,1.6s-0.1,1.4-0.4,2.6
		c-0.4,0.9-1,1.7-1.8,2.2s-1.9,0.8-3.2,1h-13.8v-4.6h3.3V35.5h5.8V35.4z M116.3,46.9c0.2,0,0.4-0.1,0.7-0.3c0.3-0.2,0.4-0.6,0.5-1.2
		c0-0.6-0.1-1-0.4-1.2c-0.3-0.2-0.5-0.2-0.7-0.2h-4v2.8h3.9V46.9z M130.6,50.7h-5.2V39.9H121v-4.6h9.7v15.4H130.6z"/>
	<g>
		<path class="st1" d="M43.2,29.2c0.6,0,1.1-0.1,1.5-0.4s0.6-0.6,0.6-1s-0.1-0.8-0.5-1s-0.9-0.4-1.6-0.4h-3.3v-3.2h3.6
			c0.2,0,0.4-0.1,0.6-0.3c0.2-0.2,0.3-0.5,0.3-0.8c0-0.4-0.2-0.7-0.4-0.8c-0.2-0.2-0.4-0.2-0.6-0.2H31.6v-3.6h13.2
			c1.6,0,2.9,0.3,3.7,0.8s1.4,1.4,1.5,2.7c0.1,1-0.1,1.7-0.6,2.3c-0.5,0.6-1.3,1-2.4,1.4l0,0c0.5,0.1,1,0.2,1.5,0.4
			c0.5,0.2,0.8,0.5,1.2,0.8s0.6,0.6,0.7,1c0.2,0.4,0.3,0.8,0.3,1.1c0,1.2-0.3,2-0.9,2.6c-0.6,0.6-1.4,1-2.3,1.2
			c-0.9,0.2-2.1,0.3-3.4,0.3h-9.4l-0.3-3L43.2,29.2z"/>
		<path class="st1" d="M51.5,32.2V21.9h-3.1l-3.2-4.4h16.4c1.6,0,2.9,0.3,3.7,0.8s1.4,1.4,1.5,2.7c0.1,1-0.1,1.7-0.6,2.3
			s-1.3,1-2.4,1.4l0,0c0.5,0.1,1,0.2,1.5,0.4c0.5,0.2,0.8,0.5,1.2,0.8c0.3,0.3,0.6,0.6,0.7,1s0.3,0.8,0.3,1.1c0,1.2-0.3,2-0.9,2.6
			c-0.6,0.6-1.4,1-2.3,1.2c-0.9,0.2-2.1,0.3-3.4,0.3h-9.4V32.2z M56.6,21.1v2.2h3.6c0.2,0,0.4-0.1,0.6-0.3c0.2-0.2,0.3-0.5,0.3-0.8
			c0-0.4-0.2-0.7-0.4-0.8c-0.2-0.2-0.4-0.2-0.6-0.2h-3.5V21.1z M56.6,26.5v2.7h3.3c0.6,0,1.1-0.1,1.5-0.4s0.6-0.6,0.6-1
			s-0.1-0.8-0.5-1s-0.9-0.4-1.6-0.4L56.6,26.5L56.6,26.5z"/>
		<path class="st1" d="M68.3,32.2V21.9h-3.1l-3.8-4.4H81v4.4h-7.9v1.7h5.1v2.6h-5.1v1.7h9.2v4.4h-14V32.2z"/>
		<path class="st1" d="M90.7,29.2c0.6,0,1.1-0.1,1.5-0.4s0.6-0.6,0.6-1s-0.1-0.8-0.5-1s-0.9-0.4-1.6-0.4h-3.3v-3.2H91
			c0.2,0,0.4-0.1,0.6-0.3c0.2-0.2,0.3-0.5,0.3-0.8c0-0.4-0.2-0.7-0.4-0.8c-0.2-0.2-0.4-0.2-0.6-0.2H79.1v-3.6h13.2
			c1.6,0,2.9,0.3,3.7,0.8s1.4,1.4,1.5,2.7c0.1,1-0.1,1.7-0.6,2.3c-0.5,0.6-1.3,1-2.4,1.4l0,0c0.5,0.1,1,0.2,1.5,0.4
			c0.5,0.2,0.8,0.5,1.2,0.8s0.6,0.6,0.7,1c0.2,0.4,0.3,0.8,0.3,1.1c0,1.2-0.3,2-0.9,2.6c-0.6,0.6-1.4,1-2.3,1.2
			c-0.9,0.2-2.1,0.3-3.4,0.3h-9.4v-3h8.5V29.2z"/>
		<path class="st1" d="M116.7,35.4h-5.5v-3.2h-6.8v3.2h-5.5v-7.1h1.1c0.9-0.9,1.5-1.9,1.7-3.1c0.2-0.7,0.3-1.7,0.3-2.9v-4.7h13.1
			v10.7h1.6L116.7,35.4L116.7,35.4z M109.5,28.3v-7h-2.7v1.9c0,1.1-0.1,2-0.2,2.7c-0.2,0.9-0.6,1.7-1.2,2.5h4.1V28.3z"/>
		<path class="st1" d="M123.1,17.5v4.8h4.6c1.2,0.2,2.2,0.6,3,1.2c0.7,0.6,1.2,1.2,1.4,1.6c0.2,0.5,0.3,1,0.3,1.5S132.3,28,132,29
			c-0.3,0.9-0.9,1.6-1.7,2.1c-0.8,0.5-1.8,0.8-3,0.9h-12.8v-4.4h3.1V17.3h5.5V17.5z M126.8,28.5c0.2,0,0.4-0.1,0.6-0.3
			s0.4-0.5,0.4-1.1s-0.1-1-0.4-1.1c-0.2-0.1-0.4-0.2-0.6-0.2h-3.7v2.7H126.8z M140,32.2h-4.8V21.9H131v-4.4h9V32.2z"/>
	</g>
	<path class="st1" d="M143.1,7.1c0,4.9-0.8,5.7-5.7,5.7c4.9,0,5.7,0.8,5.7,5.7c0-4.9,0.8-5.7,5.7-5.7C143.9,12.8,143.1,12,143.1,7.1
		z"/>
	<path class="st1" d="M78.2,14.2c0,0.8-0.1,1-1,1c0.8,0,1,0.1,1,1c0-0.8,0.1-1,1-1C78.3,15.2,78.2,15.1,78.2,14.2z"/>
	<path class="st1" d="M63.9,6.8c0,1.3-0.2,1.5-1.5,1.5c1.3,0,1.5,0.2,1.5,1.5c0-1.3,0.2-1.5,1.5-1.5C64.1,8.3,63.9,8.1,63.9,6.8z"/>
	<path class="st1" d="M71.8,13.7c0,1.3-0.2,1.5-1.5,1.5c1.3,0,1.5,0.2,1.5,1.5c0-1.3,0.2-1.5,1.5-1.5C72,15.2,71.8,15,71.8,13.7z"/>
	<rect x="10.5" y="35.4" class="st1" width="3.2" height="15.4"/>
</g>
<polygon class="st1" points="10.7,35.6 5.2,35.6 5,33.1 10.5,34.6 "/>
</svg>
