<?xml version="1.0" encoding="utf-8"?>
<!-- Generator: Adobe Illustrator 16.0.0, SVG Export Plug-In . SVG Version: 6.00 Build 0)  -->
<!DOCTYPE svg PUBLIC "-//W3C//DTD SVG 1.1//EN" "http://www.w3.org/Graphics/SVG/1.1/DTD/svg11.dtd">
<svg version="1.1" id="Layer_1" xmlns="http://www.w3.org/2000/svg" xmlns:xlink="http://www.w3.org/1999/xlink" x="0px" y="0px"
	 width="1024px" height="1024px" viewBox="0 0 1024 1024" enable-background="new 0 0 1024 1024" xml:space="preserve">
<rect x="-0.001" fill="#000" width="1024.001" height="1024"/>
<g>
	<path fill="#ab1368" fill-rule="evenodd" clip-rule="evenodd" d="M794.792,358.77c-7.553-11.821-18.459-18.784-32.533-19.558
		c-15.671-0.862-27.97,5.855-35.846,19.336c-7.996,13.685-8.354,27.76,0.315,41.585c48.936,78.043,66.02,162.67,49.052,253.09
		c-18.176,96.854-69.177,173.193-151.043,228.043c-73.477,49.23-155.009,67.24-242.271,55.23
		c-80.669-11.102-149.72-46.729-205.851-106.182c-63.828-67.605-95.109-148.373-96.598-240.986
		c0.059-26.818,2.85-53.219,9.027-79.285c19.623-82.779,63.482-150.009,130.951-201.386
		c53.309-40.593,113.957-63.449,180.772-69.367c26.622-2.357,53.319-1.904,79.743,2.094c48.603,7.352,94.175,23.344,135.927,49.66
		c8.598,5.419,18.11,6.492,27.887,4.331c16.997-3.757,28.606-16.097,31.372-32.915c2.59-15.753-5.441-32.088-20.705-41.209
		c-98.522-58.873-204.246-76.119-316.248-52.658c-86.445,18.109-160.381,60.238-220.314,124.773
		C20.404,398.919-16.175,524.25,7.734,665.83c16.469,97.516,63.299,179.99,137.961,245
		c109.101,94.992,235.932,127.404,377.265,98.381c97.733-20.07,178.028-71.006,241.235-148.109
		c63.521-77.486,95.139-166.982,97.268-266.943c0.896-42.059-4.916-83.346-16.516-123.786
		C833.59,430.771,816.979,393.501,794.792,358.77z"/>
	<path fill="#ab1368" fill-rule="evenodd" clip-rule="evenodd" d="M320.541,423.198c25.912-17.691,54.709-28.28,85.704-32.064
		c38.911-4.75,76.278,1.494,111.798,18.383c8.296,3.943,17.069,5.361,26.273,3.434c15.493-3.243,28.569-16.971,30.695-32.471
		c2.37-17.275-5.487-34.162-19.519-41.014c-56.959-27.816-116.701-36.018-178.878-23.846
		c-57.77,11.309-107.289,38.506-147.445,81.522c-64.935,69.56-89.08,152.111-71.565,245.232
		c24.748,131.58,139.896,225.408,273.659,226.047c11.783-0.891,23.662-1.113,35.334-2.777
		c71.517-10.199,131.303-42.348,177.888-97.682c41.528-49.328,63.382-106.682,65.255-171.184
		c1.349-46.424-9.422-90.344-29.059-132.399c-10.981-23.519-46.872-29.079-64.971-8.242c-12.855,14.801-12.457,30.843-4.479,47.913
		c18.78,40.189,23.873,82.17,14.792,125.646c-17.749,84.969-88.747,149.17-174.704,157.451
		c-56.678,5.461-107.576-9.865-150.338-47.539c-54.693-48.186-77.28-109.586-66.652-181.598
		C242.775,500.777,272.682,455.874,320.541,423.198z"/>
	<path fill="#ab1368" fill-rule="evenodd" clip-rule="evenodd" d="M1017.194,146.845c-5.176-1.119-10.545-1.387-15.841-1.898
		c-29.668-2.866-59.354-5.553-89.004-8.598c-13.005-1.335-19.683-8.207-20.972-21.252c-3.24-32.811-6.234-65.645-9.383-98.463
		c-0.423-4.407-0.091-9.645-5.101-11.621c-5.068-2.002-7.827,2.552-10.785,5.506c-48.709,48.63-97.312,97.367-146.084,145.935
		c-10.028,9.987-14.621,21.788-15.065,35.778c-0.965,30.453-2.335,60.893-3.441,91.342c-0.141,3.887-1.528,6.7-4.338,9.502
		c-67.258,67.086-134.414,134.271-201.554,201.474c-1.396,1.396-2.391,3.195-3.521,4.736c-2.477-1.455-3.9-2.277-5.313-3.121
		c-20.398-12.167-42.533-17.236-66.07-14.945c-61.693,6.002-104.854,60.9-96.844,122.734c7.787,60.121,66.404,102.83,125.828,91.682
		c70.952-13.313,109.314-87.5,79.015-153.063c-1.49-3.225-1.008-4.814,1.327-7.143c68.647-68.522,137.206-137.136,205.893-205.619
		c1.779-1.773,4.796-3.115,7.301-3.228c31.435-1.42,62.881-2.6,94.326-3.787c12.873-0.486,23.854-5.013,33.049-14.229
		c48.962-49.085,98.018-98.075,147.039-147.101c1.06-1.061,2.166-2.086,3.124-3.232
		C1025.178,152.966,1023.881,148.292,1017.194,146.845z"/>
</g>
</svg>
